Patient4_TMGait_0pt5_01_left_27_EMG.mot
version=1
nRows=26
nColumns=33
inDegrees=no
endheader
time	1LAddLong	2LGlutMax	3LGlutMed	4LIliopsoas	5LSemiMemb	6LBicFemLong	7LRecFem	8LVastMed	9LVastLat	10LGasMed	11LTibAnt	12lTibPost	13LPeroneusLong	14LSol	15LExtDigLong	16LFlexDigLong	17RAddLong	18RGlutMax	19RGlutMed	20RIliopsoas	21RSemiMemb	22RBicFemLong	23RRecFem	24RVastMed	25RVastLat	26RGasMed	27RTibAnt	28RTibPost	29RPeroneusLong	30RSol	31RExtDigLong	32RFlexDigLong
37.465	0.010223	0.10147	-0.13351	-0.001068	0.019989	-0.034485	-0.018311	0.010223	0.067291	-0.045319	0.006714	0.008698	0.063171	0.03418	0.006409	0.010986	0.027466	-0.081635	0.11017	0.026855	-0.016479	-0.029602	0.13458	0.14648	0.18356	-0.00351	0.31235	-0.013123	1.2027	0.10254	-0.001984	-0.002136
37.466	0.006714	0.10284	-0.13199	0.009918	0.019684	-0.02655	-0.010376	0.015411	0.067291	-0.020752	0.007019	-0.007019	0.077667	0.027924	0.008698	0.002289	0.018005	-0.063782	0.71045	-0.13794	-0.00885	-0.002441	-0.10193	0.022583	0.15274	-0.010223	0.15762	-0.008392	0.56732	0.29053	-0.000916	0.005035
37.467	0.009613	0.066833	-0.1091	0.014191	0.03479	-0.006561	-0.011444	0.005188	0.080261	-0.031586	0.00885	0.000458	0.058594	-0.10239	0.003815	-0.001831	0.006866	-0.10483	0.44449	-0.16449	-0.001373	0.028534	-0.28091	0.080566	0.16724	-0.0177	0.28168	-0.007477	-0.30914	0.616	-0.006256	-0.010071
37.468	0.003357	0.057526	-0.090637	0.018005	0.037994	0.01709	-0.007935	0.005646	0.071259	-0.042725	0.001526	0.005035	0.066071	-0.21454	0.002289	0.005646	0.023804	-0.087585	-0.017548	-0.093231	-0.00885	0.018005	-0.052032	0.092926	0.098114	-0.015717	0.43839	-0.008698	-0.84305	0.32379	-0.003052	-0.008698
37.469	0.009766	0.026703	-0.039368	0.001221	0.018158	0.063171	-0.014648	0.002747	0.079193	-0.043182	0.007935	0.011597	0.062408	-0.2095	0.01236	0.000305	0.026093	-0.11322	-0.20554	-0.082855	-0.012054	0.011902	0.041351	0.020752	0.052032	0.001984	0.035706	-0.010529	-0.020905	-0.088348	-0.002747	-0.001831
37.47	0.011749	0.022278	0.019379	0.006714	-0.016022	0.05722	-0.018768	0.011749	0.071716	-0.021973	0.011139	0.004425	0.061646	-0.19486	0.004425	-0.00061	0.026245	-0.10437	-0.26184	0.06134	-0.017548	0.021667	0.070801	0.026398	-0.003204	0.006866	-0.47379	-0.00351	-0.056152	-0.013733	-0.001526	-0.003052
37.471	0.010071	0.000153	0.02594	-0.00061	-0.083313	0.00946	-0.004578	0.005035	0.058441	-0.032654	0.012512	-0.011139	0.059814	-0.18127	0.000916	-0.001068	0.021515	-0.03067	-0.19012	0.17456	-0.011597	0.041046	0.14511	0.014191	0.010223	-0.017853	-0.32181	-0.014648	-0.42007	0.35477	-0.001221	-0.012054
37.472	0.009155	-0.016937	0.010376	-0.001678	-0.069427	-0.063782	-0.011902	0.001678	0.063782	-0.020294	0.010986	-0.003052	0.050507	-0.098267	-0.013733	0.001068	0.020142	-0.12039	-0.032349	0.16144	-0.002441	0.038605	0.12161	0.038147	0.036011	-0.013428	-0.242	-0.011292	-0.46555	0.28442	-0.005798	-0.012512
37.473	0.007324	-0.002441	-0.037537	0.00412	-0.020447	-0.082092	-0.000763	0.002594	0.066681	-0.020905	0.009308	0.01358	0.039673	0.022583	-0.021515	0.003052	0.016632	-0.19531	-0.085602	0.05127	0.010071	0.042877	0.11643	-0.001526	0.01358	-0.012512	-0.10346	-0.005798	-0.68649	0.21927	-0.00412	-0.013428
37.474	0.016174	-0.034637	-0.078278	0.012207	0.039825	-0.080109	-0.005798	0.003662	0.054169	-0.054932	0.007935	0.000763	0.036011	0.062866	-0.004425	-0.016785	0.014038	-0.17303	-0.006256	-0.00824	0.005493	0.049286	0.021973	0.044556	0.10757	-0.014496	-0.060425	-0.003052	-0.3772	0.14282	-0.001678	-0.015564
37.475	0.009003	-0.011597	-0.10986	0.022736	0.078583	-0.052338	-0.006714	-0.004272	0.069885	-0.070801	0.012207	0.012817	0.033722	0.010223	0.011139	-0.006561	0.014801	-0.11551	0.22171	-0.013123	0.014801	0.056458	0.003967	0.028992	0.15457	-0.011749	-0.000763	-0.001068	-0.098419	-0.08255	0.000763	-0.018005
37.476	0.006561	-0.034332	-0.13245	0.021973	0.054626	-0.009918	-0.024719	0.001678	0.046844	-0.09079	0.046844	0.011292	0.057526	-0.11627	0.017395	-0.010986	0.01236	-0.063477	0.66101	0.069885	0.015106	0.045166	0.025024	0.060272	0.1535	-0.01358	0.004272	-0.000763	-0.40894	-0.020599	-0.001984	-0.014496
37.477	0.004578	-0.044708	-0.097809	0.003967	0	0.024719	-0.008392	-0.007172	0.069885	-0.084534	0.033112	0.002899	0.041199	-0.1947	0.020447	0.00351	0.014801	-0.09201	-0.24994	0.10803	0.011749	0.036316	0.17807	-0.006256	0.056152	-0.018311	0.044098	-0.009918	0.84885	0.037689	-0.005951	-0.009766
37.478	0.007629	-0.027924	-0.084229	0.000763	-0.00885	0.033112	-0.022888	-0.003204	0.041351	-0.068512	-0.008087	0.014343	0.049896	-0.1831	0.011597	0.005188	0.024872	-0.11902	-0.51666	0.053558	-0.005798	0.029907	0.30609	-0.089569	0.077362	-0.007935	0.29694	-0.00824	0.37308	-0.054626	-0.001831	-0.00824
37.479	0.011902	-0.028076	-0.016785	-0.002441	0.013885	0.010223	-0.012054	-0.002289	0.040436	-0.067291	0.006561	0.016479	0.056152	-0.076141	0.004578	-0.001373	0.031433	-0.093689	0.047913	-0.049286	-0.003357	0.036316	0.092316	-0.082245	0.35629	-0.002594	0.62653	-0.002594	-0.30334	-0.044403	-0.010376	-0.005341
37.48	0.009308	-0.002899	0.001068	-0.005646	0.047913	0.016174	-0.000458	-0.002594	0.039825	-0.052948	0.010986	0.011444	0.064697	0.065308	0.003815	0.00061	0.014191	-0.05127	0.49515	-0.1683	0.021057	0.062256	-0.14175	0.059814	0.36957	-0.01358	0.37247	-0.001526	-0.13199	0.015869	-0.001831	-0.002289
37.481	0.00824	-0.027924	-0.079651	0.01236	0.080566	0.037384	-0.010986	-0.001526	0.029449	-0.072937	0.013733	0.013733	0.059204	0.14587	-0.010071	0.006409	-0.007629	-0.14664	0.58151	-0.096741	0.041809	0.074921	-0.42877	0.1503	0.19394	-0.018311	-0.020599	-0.001068	-0.045776	0.095367	-0.00061	-0.007782
37.482	-0.000763	-0.045624	-0.0914	0.010681	0.041199	0.009766	-0.01709	0.001373	0.037994	-0.04364	0.006714	0.00473	0.041504	0.11017	-0.010681	0.019226	-0.001678	-0.19333	-0.025024	-0.012054	0.046387	0.068512	-0.33554	-0.021515	0.010071	-0.010834	-0.085144	-0.002441	-0.46417	0.07782	-0.003357	-0.011749
37.483	0.010071	-0.069275	-0.040436	0.006714	-0.005798	-0.030518	-0.008392	-0.003662	0.040131	-0.023956	0.009308	0.017395	-0.00412	0.046844	-0.017242	0.002289	0.016022	-0.19501	-0.31586	0.070801	0.031128	0.026855	-0.054779	-0.037994	0.012817	-0.007629	-0.11993	-0.001068	-0.64682	-0.081482	0.005493	0.000763
37.484	0.016327	-0.041046	-0.054321	0.000153	-0.10117	-0.055389	-0.009308	-0.003204	0.032349	-0.046539	0.005646	0.017853	-0.01709	0.047913	-0.013733	0.004578	0.014648	-0.13138	-0.31586	0.11292	0.019684	-0.00061	0.092468	0.051575	0.015259	-0.013275	0.072632	-0.00412	-1.003	-0.098572	-0.001221	-0.000153
37.485	0.020752	-0.071106	-0.033417	0.006866	-0.012207	-0.082703	0.009308	-0.005341	0.032349	-0.027161	0.012512	0.001984	0.000305	0.008087	0.003662	-0.001526	0.033112	-0.11108	-0.16556	0.11795	0.002899	-0.042877	0.45715	0.13275	-0.23727	-0.013885	0.31036	-0.001221	-0.70435	-0.14084	0.000305	-0.005493
37.486	0.020142	-0.051575	-0.026093	0.013123	0.094452	-0.076752	0.014343	-0.00473	0.048523	-0.023346	0.011749	0.016785	-0.010681	-0.035706	0.007324	-0.010376	0.021362	-0.093231	-0.37811	0.064697	-0.005493	-0.047302	0.25543	0.009918	-0.48966	-0.012512	0.56015	0.000916	-0.50095	-0.22553	-0.00351	-0.012817
37.487	0.010681	-0.076599	0.080261	0.006256	0.075378	-0.000763	0.016022	-0.008392	0.041046	-0.045166	0.011902	0.010071	-0.01709	-0.075531	0.004425	-0.010071	0.018158	-0.078278	-0.30685	0.024261	-0.006561	-0.02594	0.15045	-0.052795	-0.50705	-0.000153	0.39246	-0.003815	0.33188	-0.18417	0.010834	-0.003662
37.488	0.015411	-0.10147	0.077515	0.002899	0.031891	0.034637	-0.007782	-0.003662	0.028992	-0.056152	0.014801	-0.000763	-0.007935	-0.12955	-0.002899	-0.015869	0.008545	-0.043182	0.28015	-0.16022	-0.006561	-0.03479	0.14206	0.027466	-0.18356	-0.007935	0.03067	-0.002441	1.4476	-0.099182	0.000916	-0.005341
37.489	0.007935	-0.1091	0.064545	0.003815	-0.009155	0.038147	0.011749	-0.001526	0.03418	-0.069275	0.00824	0.005798	-0.002899	-0.13489	-0.002136	-0.019226	0.035248	-0.03006	0.69046	-0.1886	-0.01709	-0.056763	0.16129	-0.082245	-0.057831	-0.009155	-1.218	0.000763	0.2829	-0.23285	-0.002441	-0.019226
37.49	0.007782	-0.079956	0.02594	0.003815	-0.016327	0.055542	0.027618	-0.001678	0.02594	-0.058594	0.01236	0.005341	-0.003967	-0.11978	0.002441	-0.025177	0.038147	-0.074005	0.097809	-0.081787	-0.030518	-0.05188	-0.055695	-0.084381	-0.16113	-0.00351	-0.94086	-0.002747	-0.73807	-0.33997	-0.000458	-0.007019
